<svg width="28" height="28" viewBox="0 0 28 28" fill="none" xmlns="http://www.w3.org/2000/svg">
<path d="M12.005 4.50333L2.12333 21C1.91959 21.3528 1.81179 21.7528 1.81065 22.1603C1.80951 22.5677 1.91507 22.9683 2.11682 23.3223C2.31858 23.6762 2.60951 23.9712 2.96065 24.1778C3.3118 24.3844 3.71093 24.4955 4.11833 24.5H23.8817C24.2891 24.4955 24.6882 24.3844 25.0393 24.1778C25.3905 23.9712 25.6814 23.6762 25.8832 23.3223C26.0849 22.9683 26.1905 22.5677 26.1893 22.1603C26.1882 21.7528 26.0804 21.3528 25.8767 21L15.995 4.50333C15.787 4.16045 15.4942 3.87697 15.1447 3.68023C14.7953 3.48348 14.401 3.38013 14 3.38013C13.599 3.38013 13.2047 3.48348 12.8553 3.68023C12.5058 3.87697 12.213 4.16045 12.005 4.50333V4.50333Z" stroke="#FFA200" stroke-width="2" stroke-linecap="round" stroke-linejoin="round"/>
<path d="M14 10.5V15.1667" stroke="#FFA200" stroke-width="2" stroke-linecap="round" stroke-linejoin="round"/>
<path d="M14 19.8333H14.0117" stroke="#FFA200" stroke-width="2" stroke-linecap="round" stroke-linejoin="round"/>
</svg>
