<svg width="24" height="28" viewBox="0 0 24 28" fill="none" xmlns="http://www.w3.org/2000/svg">
<path d="M13.8461 17.5385C13.3366 17.5385 12.923 17.9521 12.923 18.4616C12.923 18.9711 13.3366 19.3847 13.8461 19.3847C14.3556 19.3847 14.7692 18.9711 14.7692 18.4616C14.7692 17.9521 14.3556 17.5385 13.8461 17.5385Z" fill="#EE3C3C"/>
<path d="M10.1538 17.5385C9.64425 17.5385 9.23071 17.9521 9.23071 18.4616C9.23071 18.9711 9.64425 19.3847 10.1538 19.3847C10.6633 19.3847 11.0769 18.9711 11.0769 18.4616C11.0769 17.9521 10.6633 17.5385 10.1538 17.5385Z" fill="#EE3C3C"/>
<path d="M8.00765 10.1539H6.76149C5.06912 10.1539 3.69226 11.5308 3.69226 13.2231V13.6385C3.69226 15.419 5.15543 16.7104 6.75134 16.7104C7.51325 16.7104 7.9194 16.4555 8.97835 16.1344C10.2346 15.7165 11.0769 14.5417 11.0769 13.2231C11.0769 11.5308 9.70001 10.1539 8.00765 10.1539ZM8.39571 14.3826C8.39561 14.3827 8.39543 14.3827 8.39534 14.3828L7.14808 14.7983C6.35377 15.0629 5.53851 14.4724 5.53851 13.6386V13.2231H5.53841C5.53841 12.5487 6.08709 12.0001 6.76149 12.0001H8.00765C8.68205 12.0001 9.23072 12.5487 9.23072 13.2231C9.23072 13.7392 8.90238 14.2141 8.39571 14.3826Z" fill="#EE3C3C"/>
<path d="M17.2384 10.1539H15.9923C14.296 10.1539 12.923 11.5265 12.923 13.2231C12.923 14.5452 13.7659 15.715 15.0212 16.1342L16.2681 16.5495C18.2523 17.2112 20.3076 15.7402 20.3076 13.6385V13.2231C20.3076 11.5308 18.9308 10.1539 17.2384 10.1539ZM18.4615 13.6385C18.4615 14.4742 17.6447 15.0624 16.8519 14.7982C16.8518 14.7981 16.8517 14.7981 16.8516 14.7981L15.6052 14.383C15.1052 14.2158 14.7691 13.7498 14.7691 13.2231C14.7692 12.5471 15.3162 12.0001 15.9923 12.0001H17.2384C17.9128 12.0001 18.4615 12.5487 18.4615 13.2231V13.6385Z" fill="#EE3C3C"/>
<path d="M24 10.1538C24 3.51185 18.6387 0 12 0C5.35579 0 0 3.51665 0 10.1538C0 11.6132 0.271016 13.7758 0.777877 15.2865C0.278123 15.93 0 16.7226 0 17.5385C0 19.9762 2.37711 21.7686 4.71175 21.0758L5.32274 21.0763C5.46037 21.2366 5.53846 21.4432 5.53846 21.6609V24.5538C5.53846 26.0808 6.78074 27.3231 8.30769 27.3231H15.6923C17.2193 27.3231 18.4615 26.0808 18.4615 24.5538V21.588C18.4615 21.4031 18.528 21.2287 18.6456 21.0929L19.3575 21.094C21.6786 21.7324 24 19.9548 24 17.5385C24 16.7226 23.7219 15.93 23.2221 15.2865C23.7291 13.7758 24 11.6132 24 10.1538ZM21.5384 16.1757C21.9353 16.5346 22.1538 17.0186 22.1538 17.5385C22.1538 18.7714 20.9447 19.654 19.762 19.289C19.6743 19.2619 19.5831 19.2482 19.4912 19.248C18.4771 19.2803 18.1892 19.1564 17.821 19.3911C17.0661 19.8727 16.6154 20.6941 16.6154 21.588V24.5538C16.6154 25.0628 16.2013 25.4769 15.6923 25.4769H14.7692V22.1538C14.7692 21.6441 14.3559 21.2308 13.8462 21.2308C13.3364 21.2308 12.9231 21.6441 12.9231 22.1538V25.4769H11.0769V22.1538C11.0769 21.6441 10.6636 21.2308 10.1538 21.2308C9.64403 21.2308 9.23077 21.6441 9.23077 22.1538V25.4769H8.30769C7.79871 25.4769 7.38462 25.0628 7.38462 24.5538V21.6609C7.38462 20.2497 6.30129 19.2311 5.66289 19.2305C5.64969 19.2305 4.56083 19.2295 4.57015 19.2295C4.18994 19.2295 3.8952 19.5457 3.10606 19.2762C3.0924 19.2715 3.07874 19.2672 3.06489 19.2632C2.33529 18.9977 1.84615 18.3063 1.84615 17.5385C1.84615 17.0186 2.06474 16.5346 2.46157 16.1757C2.75557 15.9099 2.84695 15.4862 2.68883 15.1228C2.16138 13.9107 1.84615 11.6444 1.84615 10.1538C1.84615 4.02858 7.09135 1.84615 12 1.84615C16.9087 1.84615 22.1538 4.02858 22.1538 10.1538C22.1538 11.6444 21.8386 13.9107 21.3112 15.1228C21.153 15.4862 21.2444 15.9099 21.5384 16.1757Z" fill="#EE3C3C"/>
</svg>
